{"title":"Midnight Clear (2006) DVDRip ","uid":9368788,"size":735795203,"categoryP":"video","categoryS":"movies","magnet":"?xt=urn:btih:0b22fbbc6e4c1bdb257ec942c227c685f6ce9cbd&amp;dn=Midnight+Clear+%282006%29+DVDRip+&amp;tr=udp%3A%2F%2Ftracker.openbittorrent.com%3A80&amp;tr=udp%3A%2F%2Fopen.demonii.com%3A1337&amp;tr=udp%3A%2F%2Ftracker.coppersurfer.tk%3A6969&amp;tr=udp%3A%2F%2Fexodus.desync.com%3A6969","seeders":0,"leechers":1,"uploader":"7","files":1,"time":1387481776,"description":"leased\t2006\nGenre\t, Drama\nActors\tStephen Baldwin, K Callan, Kirk B.R. Woller\nPlot\tOn Christmas Eve, Lefty is a homeless and unemployed alcoholic loser that will lose the right to see his son. In despair, he trades a gun and is ready to heist a convenience store and ... \n\n\nIMDB link\t\n &lt;a href=&quot;\nhttp://www.imdb.com/title/tt0795426/&quot; rel=&quot;nofollow&quot; target=&quot;_NEW&quot;&gt;\nhttp://www.imdb.com/title/tt0795426/&lt;/a&gt;\n\nGeneral\nComplete name                            : Midnight Clear (2006).avi\nFormat                                   : AVI\nFormat/Info                              : Audio Video Interleave\nFile size                                : 702 MiB\nDuration                                 : 1h 42mn\nOverall bit rate mode                    : Variable\nOverall bit rate                         : 955 Kbps\nWriting application                      : VirtualDubMod 1.5.10.2 (build 2540/release)\nWriting library                          : VirtualDubMod build 2540/release\n\nVideo\nID                                       : 0\nFormat                                   : MPEG-4 Visual\nFormat profile                           : Advanced Simple@L5\nFormat settings, BVOP                    : 2\nFormat settings, QPel                    : No\nFormat settings, GMC                     : No warppoints\nFormat settings, Matrix                  : Default (H.263)\nCodec ID                                 : XVID\nCodec ID/Hint                            : XviD\nDuration                                 : 1h 42mn\nBit rate                                 : 812 Kbps\nWidth                                    : 640 pixels\nHeight                                   : 352 pixels\nDisplay aspect ratio                     : 16:9\nFrame rate                               : 23.976 fps\nColor space                              : YUV\nChroma subsampling                       : 4:2:0\nBit depth                                : 8 bits\nScan type                                : Progressive\nCompression mode                         : Lossy\nBits/(Pixel*Frame)                       : 0.150\nStream size                              : 597 MiB (85%)\nWriting library                          : XviD 1.1.2 (UTC 2006-11-01)\n\nAudio\nID                                       : 1\nFormat                                   : MPEG Audio\nFormat version                           : Version 1\nFormat profile                           : Layer 3\nMode                                     : Joint stereo\nMode extension                           : MS Stereo\nCodec ID                                 : 55\nCodec ID/Hint                            : MP3\nDuration                                 : 1h 42mn\nBit rate mode                            : Variable\nBit rate                                 : 128 Kbps\nChannel(s)                               : 2 channels\nSampling rate                            : 48.0 KHz\nCompression mode                         : Lossy\nStream size                              : 95.8 MiB (14%)\nAlignment                                : Aligned on interleaves\nInterleave, duration                     : 24 ms (0.58 video frame)\nInterleave, preload duration             : 141 ms\nWriting library                          : LAME3.90.\nEncoding settings                        : -m j -V 4 -q 2 -lowpass 17.6 --abr 128\n &lt;a href=&quot;\nhttp://lookpic.com/O/i2/415/CnYriWm1.jpeg&quot; rel=&quot;nofollow&quot; target=&quot;_NEW&quot;&gt;\nhttp://lookpic.com/O/i2/415/CnYriWm1.jpeg&lt;/a&gt;","torrent":{"xt":"urn:btih:0b22fbbc6e4c1bdb257ec942c227c685f6ce9cbd","amp;dn":"Midnight+Clear+%282006%29+DVDRip+","amp;tr":["udp%3A%2F%2Ftracker.openbittorrent.com%3A80","udp%3A%2F%2Fopen.demonii.com%3A1337","udp%3A%2F%2Ftracker.coppersurfer.tk%3A6969","udp%3A%2F%2Fexodus.desync.com%3A6969"],"infoHash":"0b22fbbc6e4c1bdb257ec942c227c685f6ce9cbd","infoHashBuffer":{"type":"Buffer","data":[11,34,251,188,110,76,27,219,37,126,201,66,194,39,198,133,246,206,156,189]},"announce":[],"urlList":[]}}